<svg width="25" height="24" viewBox="0 0 25 24" fill="none" xmlns="http://www.w3.org/2000/svg">
<path d="M3.60614 18.6489C5.20347 17.0516 5.36321 16.6523 6.36154 17.6506C7.35988 18.6489 6.96055 18.7687 5.36321 20.406C4.1652 21.604 2.64773 21.3644 2.64773 21.3644C2.64773 21.3644 2.40813 19.8469 3.60614 18.6489Z" fill="#FF9D27"/>
<path d="M6.64102 20.2863C7.27996 18.6091 7.47963 18.4094 6.56116 17.8902C5.64269 17.3711 5.64269 17.7305 5.04369 19.4077C4.56448 20.6457 5.12355 21.7638 5.12355 21.7638C5.12355 21.7638 6.20176 21.5641 6.64102 20.2863Z" fill="#FF9D27"/>
<path d="M5.72253 18.7287C6.08193 17.8102 6.08193 17.6106 6.56113 17.8901C7.08026 18.1696 6.96046 18.2894 6.60106 19.2079C6.36146 19.8868 5.76246 20.0465 5.76246 20.0465C5.76246 20.0465 5.48293 19.4475 5.72253 18.7287Z" fill="#FDF516"/>
<path d="M6.08192 17.4509C5.56278 16.5324 5.36312 16.7321 3.68591 17.371C2.44797 17.8502 2.20837 18.8885 2.20837 18.8885C2.20837 18.8885 3.32651 19.4475 4.56445 18.9683C6.24165 18.3294 6.60105 18.3294 6.08192 17.4509Z" fill="#FF9D27"/>
<path d="M5.24334 18.2895C6.16181 17.9301 6.36148 17.9301 6.08194 17.4509C5.80241 16.9318 5.68261 17.0516 4.76414 17.411C4.08527 17.6506 3.92554 18.2496 3.92554 18.2496C3.92554 18.2496 4.56447 18.5291 5.24334 18.2895Z" fill="#FDF516"/>
<path d="M4.80408 18.2097C5.68262 17.3311 5.76249 17.0915 6.32156 17.6506C6.88062 18.2097 6.64102 18.2895 5.76249 19.1681C5.08362 19.8469 4.24502 19.6872 4.24502 19.6872C4.24502 19.6872 4.16515 18.8885 4.80408 18.2097Z" fill="#FDF516"/>
<path d="M6.64102 14.3761C4.16515 10.223 0.052002 11.9401 0.052002 11.9401C0.052002 11.9401 5.92222 6.06991 9.87563 10.0233L6.64102 14.3761Z" fill="#3BAACF"/>
<path d="M8.55783 11.3012L9.8357 10.0233C5.92222 6.0699 0.052002 11.9401 0.052002 11.9401C0.052002 11.9401 5.20342 8.26624 8.55783 11.3012Z" fill="#428BC1"/>
<path d="M9.63599 17.3711C13.7891 19.847 12.0719 23.9601 12.0719 23.9601C12.0719 23.9601 17.9421 18.0899 13.9887 14.1365L9.63599 17.3711Z" fill="#3BAACF"/>
<path d="M12.7108 15.4543L13.9887 14.1764C17.9421 18.1298 12.0719 24 12.0719 24C12.0719 24 15.7458 18.8087 12.7108 15.4543Z" fill="#428BC1"/>
<path d="M18.741 11.5407C14.0688 16.173 8.91737 18.6888 7.12037 16.8918C5.32336 15.0948 7.83917 9.94338 12.4714 5.27117C17.9024 -0.159779 23.9323 0.0798222 23.9323 0.0798222C23.9323 0.0798222 24.132 6.10977 18.741 11.5407Z" fill="#C5D0D8"/>
<path d="M17.5429 10.223C12.9106 14.8552 8.27833 17.8902 7.20013 16.812C6.12193 15.7338 9.15687 11.1015 13.7891 6.46922C19.2201 1.03827 24.0121 0 24.0121 0C24.0121 0 22.9738 4.79201 17.5429 10.223Z" fill="#DAE3EA"/>
<path d="M8.95719 18.1697C8.75752 18.3694 8.43805 18.3694 8.23838 18.1697L5.84238 15.7737C5.64271 15.574 5.64271 15.2146 5.84238 15.0149L6.56118 14.2961L9.67599 17.411L8.95719 18.1697Z" fill="#C94747"/>
<path d="M8.27821 17.451C8.07854 17.6506 7.83894 17.7305 7.71914 17.6107L6.3614 16.253C6.2416 16.1332 6.32147 15.8936 6.52114 15.6939L7.23994 14.9751L8.99701 16.7322L8.27821 17.451Z" fill="#F15744"/>
<path d="M7.5995 18.4493C7.4797 18.5691 7.20016 18.5691 7.08036 18.4493L5.52296 16.8919C5.40316 16.7721 5.44309 16.5325 5.56289 16.4127L6.04209 15.9335L8.0787 17.9701L7.5995 18.4493Z" fill="#3E4347"/>
<path d="M7.27988 18.1298C7.16008 18.2496 6.92048 18.2895 6.84061 18.2097L5.76241 17.1315C5.68254 17.0516 5.72247 16.8519 5.88221 16.7321L6.36141 16.2529L7.75908 17.6506L7.27988 18.1298Z" fill="#62727A"/>
<path d="M23.9321 0.0798612C23.9321 0.0798612 21.7757 -5.63264e-06 18.8606 1.11813L22.8939 5.15141C24.012 2.23627 23.9321 0.0798612 23.9321 0.0798612Z" fill="#C94747"/>
<path d="M23.9322 0.079834C23.9322 0.079834 22.2151 0.439235 19.6194 1.91677L22.0953 4.39265C23.5728 1.79697 23.9322 0.079834 23.9322 0.079834Z" fill="#F15744"/>
<path d="M16.6244 9.38434C17.7271 9.38434 18.621 8.4904 18.621 7.38766C18.621 6.28493 17.7271 5.39099 16.6244 5.39099C15.5216 5.39099 14.6277 6.28493 14.6277 7.38766C14.6277 8.4904 15.5216 9.38434 16.6244 9.38434Z" fill="#EDF4F9"/>
<path d="M16.6243 8.70555C17.3521 8.70555 17.9421 8.11555 17.9421 7.38775C17.9421 6.65995 17.3521 6.06995 16.6243 6.06995C15.8965 6.06995 15.3065 6.65995 15.3065 7.38775C15.3065 8.11555 15.8965 8.70555 16.6243 8.70555Z" fill="#3BAACF"/>
<path d="M12.631 13.3776C13.7337 13.3776 14.6277 12.4837 14.6277 11.3809C14.6277 10.2782 13.7337 9.38428 12.631 9.38428C11.5283 9.38428 10.6343 10.2782 10.6343 11.3809C10.6343 12.4837 11.5283 13.3776 12.631 13.3776Z" fill="#EDF4F9"/>
<path d="M12.631 12.6988C13.3588 12.6988 13.9488 12.1088 13.9488 11.381C13.9488 10.6532 13.3588 10.0632 12.631 10.0632C11.9032 10.0632 11.3132 10.6532 11.3132 11.381C11.3132 12.1088 11.9032 12.6988 12.631 12.6988Z" fill="#3BAACF"/>
<path d="M18.7807 1.95675C18.6609 2.07655 18.4213 2.07655 18.3015 1.95675C18.1817 1.83695 18.1817 1.59735 18.3015 1.47755C18.4213 1.35775 18.6609 1.35775 18.7807 1.47755C18.9005 1.59735 18.9005 1.83695 18.7807 1.95675Z" fill="white"/>
<path d="M19.4597 2.9551C19.6361 2.9551 19.7791 2.81207 19.7791 2.63563C19.7791 2.45919 19.6361 2.31616 19.4597 2.31616C19.2832 2.31616 19.1402 2.45919 19.1402 2.63563C19.1402 2.81207 19.2832 2.9551 19.4597 2.9551Z" fill="white"/>
<path d="M20.4182 3.91347C20.5946 3.91347 20.7376 3.77044 20.7376 3.594C20.7376 3.41757 20.5946 3.27454 20.4182 3.27454C20.2417 3.27454 20.0987 3.41757 20.0987 3.594C20.0987 3.77044 20.2417 3.91347 20.4182 3.91347Z" fill="white"/>
<path d="M21.3366 4.87197C21.513 4.87197 21.656 4.72894 21.656 4.5525C21.656 4.37606 21.513 4.23303 21.3366 4.23303C21.1601 4.23303 21.0171 4.37606 21.0171 4.5525C21.0171 4.72894 21.1601 4.87197 21.3366 4.87197Z" fill="white"/>
<path d="M22.2949 5.79042C22.4713 5.79042 22.6143 5.64739 22.6143 5.47096C22.6143 5.29452 22.4713 5.15149 22.2949 5.15149C22.1184 5.15149 21.9754 5.29452 21.9754 5.47096C21.9754 5.64739 22.1184 5.79042 22.2949 5.79042Z" fill="white"/>
</svg>
